<svg xmlns="http://www.w3.org/2000/svg" xmlns:xlink="http://www.w3.org/1999/xlink"
  zoomAndPan="magnify" preserveAspectRatio="xMidYMid meet" version="1.0"
  viewBox="0.93 0 40.04 40.54">
  <defs>
    <g></g>
    <clipPath id="9dd5a35575">
      <path
        d="M 17.382812 39.039062 L 24.519531 39.039062 L 24.519531 40.511719 L 17.382812 40.511719 Z M 17.382812 39.039062 "
        clip-rule="nonzero"></path>
    </clipPath>
    <clipPath id="f317d86b7f">
      <path
        d="M 33.769531 19.382812 L 40.972656 19.382812 L 40.972656 20.550781 L 33.769531 20.550781 Z M 33.769531 19.382812 "
        clip-rule="nonzero"></path>
    </clipPath>
    <clipPath id="3db8da4732">
      <path d="M 0.929688 19 L 9 19 L 9 21 L 0.929688 21 Z M 0.929688 19 " clip-rule="nonzero"></path>
    </clipPath>
    <clipPath id="80db11d5d6">
      <path
        d="M 20.183594 23.058594 L 24.273438 23.058594 L 24.273438 26.160156 L 20.183594 26.160156 Z M 20.183594 23.058594 "
        clip-rule="nonzero"></path>
    </clipPath>
    <clipPath id="6be46d86d5">
      <path
        d="M 24.183594 25.125 C 24.238281 24.964844 24.273438 24.785156 24.273438 24.609375 C 24.273438 24.429688 24.242188 24.261719 24.191406 24.101562 C 24.1875 24.101562 24.1875 24.097656 24.1875 24.09375 C 23.972656 23.503906 23.402344 23.066406 22.730469 23.058594 L 20.183594 23.058594 L 20.183594 26.160156 L 22.730469 26.160156 C 23.40625 26.148438 23.976562 25.722656 24.183594 25.125 "
        clip-rule="nonzero"></path>
    </clipPath>
  </defs>
  <path fill="#3a8eff"
    d="M 20.945312 10.855469 C 18.832031 10.855469 16.839844 11.640625 15.292969 13.09375 C 13.613281 14.667969 12.6875 16.800781 12.6875 19.097656 C 12.6875 20.964844 13.292969 22.722656 14.445312 24.183594 C 16.019531 26.183594 16.855469 28.5 16.855469 30.878906 L 16.855469 32.328125 C 16.855469 32.574219 17.050781 32.769531 17.296875 32.769531 L 24.617188 32.769531 C 24.839844 32.769531 25.019531 32.589844 25.019531 32.371094 L 25.019531 30.910156 C 25.019531 28.515625 25.859375 26.15625 27.386719 24.273438 C 28.675781 22.675781 29.324219 20.660156 29.203125 18.601562 C 28.960938 14.519531 25.566406 11.125 21.476562 10.871094 C 21.296875 10.863281 21.121094 10.855469 20.945312 10.855469 Z M 24.617188 33.933594 L 17.296875 33.933594 C 16.410156 33.933594 15.6875 33.214844 15.6875 32.328125 L 15.6875 30.878906 C 15.6875 28.761719 14.941406 26.695312 13.527344 24.902344 C 12.214844 23.234375 11.519531 21.226562 11.519531 19.097656 C 11.519531 16.515625 12.601562 14.015625 14.492188 12.246094 C 16.40625 10.449219 18.914062 9.550781 21.546875 9.710938 C 26.296875 10.003906 30.085938 13.796875 30.367188 18.535156 C 30.503906 20.882812 29.769531 23.179688 28.292969 25.003906 C 26.933594 26.679688 26.183594 28.78125 26.183594 30.910156 L 26.183594 32.371094 C 26.183594 33.234375 25.480469 33.933594 24.617188 33.933594 "
    fill-opacity="1" fill-rule="nonzero"></path>
  <path fill="#3a8eff"
    d="M 25.011719 35.46875 L 16.894531 35.46875 C 16.570312 35.46875 16.308594 35.210938 16.308594 34.886719 C 16.308594 34.566406 16.570312 34.304688 16.894531 34.304688 L 25.011719 34.304688 C 25.332031 34.304688 25.59375 34.566406 25.59375 34.886719 C 25.59375 35.210938 25.332031 35.46875 25.011719 35.46875 "
    fill-opacity="1" fill-rule="nonzero"></path>
  <path fill="#3a8eff"
    d="M 25.011719 37.019531 L 16.894531 37.019531 C 16.570312 37.019531 16.308594 36.761719 16.308594 36.4375 C 16.308594 36.117188 16.570312 35.859375 16.894531 35.859375 L 25.011719 35.859375 C 25.332031 35.859375 25.59375 36.117188 25.59375 36.4375 C 25.59375 36.761719 25.332031 37.019531 25.011719 37.019531 "
    fill-opacity="1" fill-rule="nonzero"></path>
  <path fill="#3a8eff"
    d="M 25.011719 38.570312 L 16.894531 38.570312 C 16.570312 38.570312 16.308594 38.3125 16.308594 37.988281 C 16.308594 37.667969 16.570312 37.410156 16.894531 37.410156 L 25.011719 37.410156 C 25.332031 37.410156 25.59375 37.667969 25.59375 37.988281 C 25.59375 38.3125 25.332031 38.570312 25.011719 38.570312 "
    fill-opacity="1" fill-rule="nonzero"></path>
  <g clip-path="url(#9dd5a35575)">
    <path fill="#3a8eff"
      d="M 23.996094 40.539062 L 17.910156 40.539062 L 17.390625 39.042969 L 24.511719 39.042969 L 23.996094 40.539062 "
      fill-opacity="1" fill-rule="nonzero"></path>
  </g>
  <path fill="#3a8eff"
    d="M 20.953125 7.179688 C 20.628906 7.179688 20.367188 6.921875 20.367188 6.597656 L 20.367188 0.582031 C 20.367188 0.261719 20.628906 0 20.953125 0 C 21.273438 0 21.535156 0.261719 21.535156 0.582031 L 21.535156 6.597656 C 21.535156 6.921875 21.273438 7.179688 20.953125 7.179688 "
    fill-opacity="1" fill-rule="nonzero"></path>
  <path fill="#3a8eff"
    d="M 30.429688 11.097656 C 30.28125 11.097656 30.132812 11.039062 30.015625 10.925781 C 29.789062 10.699219 29.789062 10.332031 30.015625 10.105469 L 34.285156 5.847656 C 34.511719 5.621094 34.878906 5.621094 35.109375 5.847656 C 35.335938 6.074219 35.335938 6.445312 35.109375 6.671875 L 30.839844 10.925781 C 30.726562 11.039062 30.578125 11.097656 30.429688 11.097656 "
    fill-opacity="1" fill-rule="nonzero"></path>
  <g clip-path="url(#f317d86b7f)">
    <path fill="#3a8eff"
      d="M 40.390625 20.550781 L 34.355469 20.550781 C 34.035156 20.550781 33.773438 20.289062 33.773438 19.96875 C 33.773438 19.648438 34.035156 19.386719 34.355469 19.386719 L 40.390625 19.386719 C 40.710938 19.386719 40.972656 19.648438 40.972656 19.96875 C 40.972656 20.289062 40.710938 20.550781 40.390625 20.550781 "
      fill-opacity="1" fill-rule="nonzero"></path>
  </g>
  <path fill="#3a8eff"
    d="M 34.695312 34.257812 C 34.546875 34.257812 34.398438 34.203125 34.285156 34.085938 L 30.015625 29.832031 C 29.789062 29.605469 29.789062 29.238281 30.015625 29.011719 C 30.246094 28.78125 30.613281 28.78125 30.84375 29.011719 L 35.109375 33.265625 C 35.335938 33.492188 35.335938 33.859375 35.109375 34.085938 C 34.996094 34.203125 34.84375 34.257812 34.695312 34.257812 "
    fill-opacity="1" fill-rule="nonzero"></path>
  <path fill="#3a8eff"
    d="M 7.207031 34.257812 C 7.058594 34.257812 6.910156 34.203125 6.792969 34.085938 C 6.566406 33.859375 6.566406 33.492188 6.792969 33.265625 L 11.0625 29.011719 C 11.289062 28.78125 11.65625 28.78125 11.886719 29.011719 C 12.113281 29.238281 12.113281 29.605469 11.886719 29.832031 L 7.617188 34.085938 C 7.503906 34.203125 7.355469 34.257812 7.207031 34.257812 "
    fill-opacity="1" fill-rule="nonzero"></path>
  <g clip-path="url(#3db8da4732)">
    <path fill="#3a8eff"
      d="M 7.546875 20.550781 L 1.511719 20.550781 C 1.191406 20.550781 0.929688 20.289062 0.929688 19.96875 C 0.929688 19.648438 1.191406 19.386719 1.511719 19.386719 L 7.546875 19.386719 C 7.871094 19.386719 8.128906 19.648438 8.128906 19.96875 C 8.128906 20.289062 7.871094 20.550781 7.546875 20.550781 "
      fill-opacity="1" fill-rule="nonzero"></path>
  </g>
  <path fill="#3a8eff"
    d="M 11.472656 11.097656 C 11.324219 11.097656 11.175781 11.039062 11.0625 10.925781 L 6.792969 6.671875 C 6.566406 6.445312 6.566406 6.074219 6.792969 5.847656 C 7.023438 5.621094 7.390625 5.621094 7.617188 5.847656 L 11.886719 10.105469 C 12.113281 10.332031 12.113281 10.699219 11.886719 10.925781 C 11.773438 11.039062 11.621094 11.097656 11.472656 11.097656 "
    fill-opacity="1" fill-rule="nonzero"></path>
  <path stroke-linecap="butt"
    transform="matrix(0.000000000000000008, 0.124735, -0.12398, 0.000000000000000008, 21.173931, 23.027073)"
    fill="none" stroke-linejoin="miter" d="M 0.00217214 3.986482 L 79.514491 3.986482 "
    stroke="#3a8eff" stroke-width="8" stroke-opacity="1" stroke-miterlimit="4"></path>
  <path stroke-linecap="butt" transform="matrix(0.12369, 0, 0, 0.12398, 17.19795, 28.018615)"
    fill="none" stroke-linejoin="miter" d="M 0.010259 4.008803 L 60.140493 4.008803 "
    stroke="#3a8eff" stroke-width="8" stroke-opacity="1" stroke-miterlimit="4"></path>
  <g clip-path="url(#80db11d5d6)">
    <g clip-path="url(#6be46d86d5)">
      <path stroke-linecap="butt"
        transform="matrix(0.000000000000000008, -0.122676, 0.122243, 0.000000000000000007, 20.182834, 26.158642)"
        fill="none" stroke-linejoin="miter"
        d="M 8.425766 32.727827 C 9.731285 33.175193 11.196013 33.462785 12.6289 33.462785 C 14.093628 33.462785 15.462831 33.207148 16.76835 32.791736 C 16.76835 32.759782 16.800192 32.759782 16.832034 32.759782 C 21.640164 31.002273 25.206459 26.336887 25.270143 20.840678 L 25.270143 0.00621259 L -0.012343 0.00621259 L -0.012343 20.840678 C 0.0831827 26.368841 3.553952 31.034228 8.425766 32.727827 "
        stroke="#3a8eff" stroke-width="13.098721" stroke-opacity="1" stroke-miterlimit="4"></path>
    </g>
  </g>
</svg>